# xmcd
#
# Track frame offsets:
#	150
#	13555
#	29264
#	45675
#	59793
#	73525
#	88906
#	103635
#	121384
#	133891
#	148694
#	167779
#	180655
#	192754
#
# Disc length: 2729 seconds
#
# Revision: 1
# Processed by: cddbd v1.5.2PL0 Copyright (c) Steve Scherf et al.
# Submitted via: audiograbber 1.82.02
#
DISCID=cd0aa70e
DTITLE=Al Grant - Heartbeat Moments
DYEAR=2006
DGENRE=Country
TTITLE0=Rose Are Red
TTITLE1=Grandpa's Little Girl
TTITLE2=Memories Are Made Of This
TTITLE3=Love Me Tender
TTITLE4=My Happiness
TTITLE5=Beautiful Dreamer
TTITLE6=Heartbeat
TTITLE7=Partners In Rhyme
TTITLE8=Ramblin' Rose
TTITLE9=Goodnight Irene
TTITLE10=You Are The Only One
TTITLE11=Gentle Shepherd
TTITLE12=I Heard The Bluebird Sing
TTITLE13=Softly and Tenderly
EXTD=
EXTT0=
EXTT1=
EXTT2=
EXTT3=
EXTT4=
EXTT5=
EXTT6=
EXTT7=
EXTT8=
EXTT9=
EXTT10=
EXTT11=
EXTT12=
EXTT13=
PLAYORDER=
